<svg width="20" height="26" viewBox="0 0 20 26" fill="none" xmlns="http://www.w3.org/2000/svg">
<path d="M3.19196 16.883C2.02033 15.8278 1.12666 14.5129 0.586578 13.0496C0.0464926 11.5863 -0.124111 10.0177 0.0892051 8.47654C0.300128 6.91382 0.896537 5.42427 1.82731 4.13555C2.75809 2.84684 3.99547 1.7974 5.4334 1.07719C6.87134 0.356976 8.46694 -0.0125364 10.0834 0.000324582C11.7 0.0131856 13.2892 0.408036 14.7148 1.15103C16.1405 1.89403 17.3602 2.96302 18.2693 4.26637C19.1784 5.56972 19.7498 7.06856 19.9345 8.63443C20.1192 10.2003 19.9118 11.7865 19.33 13.2571C18.7482 14.7276 17.8093 16.0387 16.5939 17.078C15.8112 17.734 15.2036 18.5655 14.8231 19.501H11.1149V11.7195C11.7625 11.4963 12.3235 11.0835 12.7212 10.5375C13.1189 9.99149 13.3339 9.33903 13.3367 8.66935C13.3367 8.38207 13.2197 8.10657 13.0114 7.90343C12.803 7.7003 12.5205 7.58618 12.2258 7.58618C11.9312 7.58618 11.6486 7.7003 11.4403 7.90343C11.232 8.10657 11.1149 8.38207 11.1149 8.66935C11.1149 8.95662 10.9979 9.23213 10.7895 9.43526C10.5812 9.63839 10.2986 9.75251 10.004 9.75251C9.70939 9.75251 9.42683 9.63839 9.21849 9.43526C9.01016 9.23213 8.89312 8.95662 8.89312 8.66935C8.89312 8.38207 8.77607 8.10657 8.56774 7.90343C8.3594 7.7003 8.07684 7.58618 7.78221 7.58618C7.48758 7.58618 7.20502 7.7003 6.99668 7.90343C6.78835 8.10657 6.67131 8.38207 6.67131 8.66935C6.67416 9.33903 6.88914 9.99149 7.28685 10.5375C7.68455 11.0835 8.24556 11.4963 8.89312 11.7195V19.501H5.07494C4.65024 18.5051 4.00761 17.6116 3.19196 16.883ZM5.5604 21.6673V22.0031C5.56158 23.0628 5.99384 24.0788 6.76234 24.8281C7.53084 25.5774 8.57281 25.9989 9.65964 26H10.3484C11.4352 25.9989 12.4772 25.5774 13.2457 24.8281C14.0142 24.0788 14.4465 23.0628 14.4476 22.0031V21.6673H5.5604Z" fill="#00995D"/>
</svg>
