<svg width="22" height="22" viewBox="0 0 22 22" fill="none" xmlns="http://www.w3.org/2000/svg">
<path d="M10.0848 8.40308C10.0848 8.40308 5.5008 5.16083 5.5008 2.52083C5.47189 1.88303 5.6968 1.25975 6.12633 0.78733C6.55586 0.314912 7.15505 0.0318253 7.7928 0C8.43055 0.0318253 9.02974 0.314912 9.45927 0.78733C9.8888 1.25975 10.1137 1.88303 10.0848 2.52083C10.0559 1.88303 10.2808 1.25975 10.7103 0.78733C11.1399 0.314912 11.739 0.0318253 12.3768 0C13.0146 0.0318253 13.6137 0.314912 14.0433 0.78733C14.4728 1.25975 14.6977 1.88303 14.6688 2.52083C14.6688 5.16083 10.0848 8.40308 10.0848 8.40308ZM21.2221 7.95758C20.7558 7.53222 20.1402 7.3086 19.5096 7.33557C18.879 7.36253 18.2847 7.63789 17.8565 8.1015L14.6092 11.5271C14.6444 11.7202 14.6643 11.9157 14.6688 12.1119C14.6649 13.0405 14.3282 13.9368 13.7197 14.6383C13.1113 15.3399 12.2715 15.8 11.3527 15.9353L7.46459 16.4908L7.20421 14.6758L11.0933 14.1167C11.5966 14.039 12.0524 13.775 12.37 13.3769C12.6876 12.9788 12.8439 12.4758 12.8078 11.9679C12.7716 11.4599 12.5457 10.9841 12.1749 10.635C11.8042 10.2859 11.3156 10.0889 10.8063 10.0833H2.7504C2.02095 10.0833 1.32137 10.3731 0.805574 10.8888C0.289773 11.4045 0 12.104 0 12.8333L0 19.25C0 19.9793 0.289773 20.6788 0.805574 21.1945C1.32137 21.7103 2.02095 22 2.7504 22H11.6104L21.3963 11.3163C21.8137 10.8455 22.0294 10.2296 21.9968 9.60127C21.9642 8.97298 21.686 8.38266 21.2221 7.95758Z" fill="#00995D"/>
</svg>
