<svg width="24" height="24" viewBox="0 0 24 24" fill="none" xmlns="http://www.w3.org/2000/svg">
<path d="M12.2797 24H1.09851C0.80201 24 0.518691 23.8811 0.311143 23.6695C0.104694 23.4589 -0.00731587 23.1731 0.000371083 22.8785C0.163993 16.8633 3.03891 14.1807 9.31915 14.1807C9.63871 14.1807 9.94399 14.1927 10.2471 14.2069C9.99011 15.1505 9.85504 16.2262 9.85504 17.4535C9.85504 20.5113 10.6457 22.6691 12.2797 24ZM9.31915 12C13.4394 12 15.3589 10.0931 15.3589 6C15.3589 1.90691 13.4394 0 9.31915 0C5.19894 0 3.2794 1.90691 3.2794 6C3.2794 10.0931 5.19894 12 9.31915 12ZM23.7728 20.7676C23.3127 21.5465 22.3024 21.8084 21.5183 21.3502L21.0033 21.0502C20.6486 21.3044 20.2236 21.4909 19.7372 21.6175V22.3636C19.7372 23.2669 18.9992 24 18.09 24C17.1807 24 16.4428 23.2669 16.4428 22.3636V21.6175C15.9563 21.4909 15.5313 21.3055 15.1766 21.0502L14.6616 21.3502C13.8775 21.8073 12.8672 21.5465 12.4071 20.7676C11.947 19.9887 12.2094 18.9851 12.9935 18.528L13.7282 18.0993C13.7084 17.8942 13.6963 17.6804 13.6963 17.4535C13.6963 17.2265 13.7084 17.0138 13.7282 16.8076L12.9935 16.3789C12.2094 15.9218 11.9459 14.9182 12.4071 14.1393C12.8672 13.3604 13.8775 13.0985 14.6616 13.5567L15.1766 13.8567C15.5313 13.6025 15.9563 13.416 16.4428 13.2895V12.5433C16.4428 11.64 17.1807 10.9069 18.09 10.9069C18.9992 10.9069 19.7372 11.64 19.7372 12.5433V13.2895C20.2236 13.416 20.6486 13.6015 21.0033 13.8567L21.5183 13.5567C22.3024 13.0996 23.3127 13.3604 23.7728 14.1393C24.2329 14.9182 23.9705 15.9218 23.1864 16.3789L22.4518 16.8076C22.4715 17.0127 22.4836 17.2265 22.4836 17.4535C22.4836 17.6804 22.4715 17.8931 22.4518 18.0993L23.1864 18.528C23.9705 18.9851 24.234 19.9887 23.7728 20.7676ZM19.7383 17.4545C19.7383 16.1542 19.4 15.8182 18.0911 15.8182C16.7821 15.8182 16.4439 16.1542 16.4439 17.4545C16.4439 18.7549 16.7821 19.0909 18.0911 19.0909C19.4 19.0909 19.7383 18.7549 19.7383 17.4545Z" fill="#00995D"/>
</svg>
