<svg width="22" height="22" viewBox="0 0 22 22" fill="none" xmlns="http://www.w3.org/2000/svg">
<path d="M7.79 7.33104C6.9328 7.33104 6.12693 6.99739 5.52093 6.39149C4.27043 5.14119 4.27043 3.10442 5.52093 1.85413L7.14916 0.261929C7.50579 -0.0873098 8.07512 -0.0873098 8.43084 0.261929L10.0517 1.8468C11.3105 3.10442 11.3105 5.14028 10.0591 6.39149C9.45306 6.99739 8.6472 7.33104 7.79 7.33104ZM21.2229 7.95802C20.7507 7.52812 20.1355 7.30538 19.5011 7.33654C18.8621 7.36587 18.2735 7.6427 17.8564 8.10193L14.61 11.5274C14.6394 11.7199 14.6696 11.9124 14.6696 12.1122C14.6696 14.0216 13.244 15.6651 11.3536 15.9346L7.45537 16.4809C6.95388 16.5524 6.48998 16.2041 6.41847 15.7036C6.34696 15.2022 6.69535 14.7384 7.19592 14.6669L11.0116 14.1325C11.8697 14.0097 12.6142 13.3937 12.7902 12.5449C13.0616 11.2387 12.0659 10.0837 10.8062 10.0837H3.66718C1.64198 10.0837 0 11.7254 0 13.7503V18.3334C0 20.3583 1.64198 22 3.66718 22H7.57455C10.1462 22 12.5986 20.9202 14.335 19.0246L21.3961 11.3166C22.2653 10.3431 22.1864 8.83616 21.2229 7.95802Z" fill="#00995D"/>
</svg>
