<svg width="24" height="24" viewBox="0 0 24 24" fill="none" xmlns="http://www.w3.org/2000/svg">
<path d="M12 7V0.46C12.913 0.806 13.753 1.339 14.465 2.05L17.949 5.536C18.661 6.247 19.194 7.087 19.54 8H13C12.448 8 12 7.551 12 7ZM19.5 18C22.544 18 23.779 17.189 24 16.921V14.5C24 13.617 22.15 13 19.5 13C16.85 13 15 13.617 15 14.5V16.921C15.221 17.189 16.456 18 19.5 18ZM19.5 24C22.359 24 24 23.21 24 21.833V19.223C22.921 19.689 21.43 20 19.5 20C17.57 20 16.079 19.689 15 19.223V21.833C15 23.21 16.641 24 19.5 24ZM13 21.833V14.5C13 13.448 13.634 11 19.5 11C19.675 11 19.83 11.009 19.996 11.013C19.991 10.612 19.984 10.102 19.977 10H13.001C11.347 10 10.001 8.654 10.001 7V0.024C9.84 0.013 9.679 0 9.516 0H5C2.243 0 0 2.243 0 5V19C0 21.757 2.243 24 5 24H13.751C13.1 23.158 13 22.273 13 21.833ZM6 19C6 19.552 5.553 20 5 20C4.447 20 4 19.552 4 19V16C4 15.448 4.447 15 5 15C5.553 15 6 15.448 6 16V19ZM10 19C10 19.552 9.553 20 9 20C8.447 20 8 19.552 8 19V12C8 11.448 8.447 11 9 11C9.553 11 10 11.448 10 12V19Z" fill="#00995D"/>
</svg>
