<svg width="24" height="24" viewBox="0 0 24 24" fill="none" xmlns="http://www.w3.org/2000/svg">
<path d="M16 4C16 2.346 17.346 1 19 1C19 0.447 19.447 0 20 0C20.553 0 21 0.447 21 1H21.268C22.335 1 23.331 1.574 23.866 2.499C24.143 2.978 23.979 3.589 23.502 3.865C23.021 4.142 22.411 3.978 22.136 3.501C21.957 3.191 21.625 3 21.269 3H19.001C18.449 3 18.001 3.448 18.001 4C18.001 4.379 18.272 4.698 18.646 4.761L21.686 5.267C23.028 5.491 24.001 6.641 24.001 8C24.001 9.654 22.655 11 21.001 11C21.001 11.553 20.554 12 20.001 12C19.448 12 19.001 11.553 19.001 11H18.733C17.666 11 16.67 10.426 16.135 9.501C15.858 9.022 16.022 8.411 16.499 8.135C16.979 7.856 17.59 8.022 17.865 8.499C18.044 8.809 18.376 9 18.732 9H21C21.552 9 22 8.552 22 8C22 7.621 21.729 7.302 21.355 7.239L18.315 6.733C16.973 6.509 16 5.359 16 4ZM22.406 12.774C22.989 12.602 23.526 12.333 23.999 11.975V15.001C23.999 17.758 21.756 20.001 18.999 20.001H12.999V22.001H16.999C17.552 22.001 17.999 22.448 17.999 23.001C17.999 23.554 17.552 24.001 16.999 24.001H7C6.448 24.001 6 23.554 6 23.001C6 22.448 6.448 22.001 7 22.001H11V20.001H5C2.243 20.001 0 17.758 0 15.001V7.001C0 4.243 2.243 2 5 2H14.424C14.155 2.614 14 3.288 14 4C14 5.055 14.34 6.036 14.926 6.832C14.53 7.208 14.246 7.686 14.102 8.226C13.895 9.001 14.002 9.81 14.404 10.501C15.114 11.732 16.318 12.58 17.679 12.876C18.229 13.556 19.06 14 20.001 14C20.99 14 21.86 13.513 22.406 12.774ZM5 12C5 11.447 4.552 11 4 11C3.448 11 3 11.447 3 12V15C3 15.553 3.448 16 4 16C4.552 16 5 15.553 5 15V12ZM9 8C9 7.447 8.552 7 8 7C7.448 7 7 7.447 7 8V15C7 15.553 7.448 16 8 16C8.552 16 9 15.553 9 15V8ZM13 11C13 10.447 12.553 10 12 10C11.447 10 11 10.447 11 11V15C11 15.553 11.447 16 12 16C12.553 16 13 15.553 13 15V11Z" fill="#00995D"/>
</svg>
