<svg width="21" height="26" viewBox="0 0 21 26" fill="none" xmlns="http://www.w3.org/2000/svg">
<path d="M10.522 13C7.0476 13 4.22205 10.0848 4.22205 6.5C4.22205 2.91525 7.04865 0 10.522 0C13.9954 0 16.822 2.91525 16.822 6.5C16.822 10.0848 13.9965 13 10.522 13ZM12.6 19.6993V15.1667H7.32795V19.8001C7.9527 20.1749 8.37795 20.8661 8.37795 21.6667C8.37795 22.8638 7.4382 23.8333 6.27795 23.8333C5.1177 23.8333 4.17795 22.8638 4.17795 21.6667C4.17795 20.8672 4.6032 20.176 5.22795 19.8001V15.1688C2.3436 15.1818 0 17.6042 0 20.5833V26H10.5V22.75C10.5 21.3395 11.3809 20.1478 12.6 19.6993ZM15.75 15.1667H14.7V19.6993C15.919 20.1478 16.8 21.3395 16.8 22.75V26H21V20.5833C21 17.5966 18.6448 15.1667 15.75 15.1667ZM13.65 21.6667C13.0704 21.6667 12.6 22.152 12.6 22.75V26H14.7V22.75C14.7 22.152 14.2296 21.6667 13.65 21.6667Z" fill="#00995D"/>
</svg>
