<svg width="24" height="24" viewBox="0 0 24 24" fill="none" xmlns="http://www.w3.org/2000/svg">
<path d="M15.091 15.996C21.662 15.963 24 12.483 24 9.499C24 7.822 22.812 6.419 21.235 6.08C21.371 5.694 21.489 5.339 21.568 5.07C21.921 3.877 21.693 2.617 20.942 1.612C20.176 0.588 19.005 0 17.728 0H6.271C4.994 0 3.822 0.588 3.056 1.612C2.305 2.617 2.077 3.878 2.43 5.07C2.51 5.339 2.627 5.694 2.764 6.081C1.187 6.42 0 7.823 0 9.5C0 12.484 2.339 15.964 8.909 15.997C8.965 16.299 9 16.607 9 16.921V20C9 21.826 7.464 21.992 7 22H6C5.447 22 5 22.447 5 23C5 23.553 5.447 24 6 24H18C18.553 24 19 23.553 19 23C19 22.447 18.553 22 18 22H17.008C16.536 21.992 15 21.826 15 20V16.92C15 16.607 15.035 16.299 15.091 15.997V15.996ZM20.452 7.989C20.469 7.989 20.483 7.999 20.5 7.999C21.327 7.999 22 8.672 22 9.499C22 11.533 20.391 13.696 15.964 13.969C16.185 13.67 16.438 13.393 16.726 13.148C18.465 11.67 19.659 9.695 20.452 7.989ZM2 9.499C2 8.672 2.673 7.999 3.5 7.999C3.517 7.999 3.531 7.99 3.547 7.989C4.341 9.695 5.535 11.67 7.274 13.148C7.562 13.393 7.815 13.669 8.036 13.969C3.609 13.696 2 11.533 2 9.499ZM9.792 9.762C9.528 9.58 9.417 9.244 9.522 8.94L10.041 7.334L8.675 6.334C8.348 6.094 8.277 5.635 8.517 5.308C8.655 5.12 8.875 5.008 9.108 5.008H10.789L11.3 3.415C11.429 3.028 11.847 2.82 12.234 2.949C12.454 3.022 12.627 3.195 12.7 3.415L13.21 5.008H14.891C15.296 5.008 15.625 5.336 15.625 5.742C15.625 5.977 15.513 6.197 15.324 6.335L13.958 7.335L14.477 8.941C14.601 9.327 14.389 9.741 14.002 9.866C13.778 9.938 13.533 9.898 13.343 9.759L12 8.771L10.656 9.758C10.4 9.949 10.05 9.95 9.792 9.762Z" fill="#00995D"/>
</svg>
