<svg width="22" height="22" viewBox="0 0 22 22" fill="none" xmlns="http://www.w3.org/2000/svg">
<path d="M11 8.40308C11 8.40308 6.41667 5.16083 6.41667 2.52083C6.41667 1.12842 7.44242 0 8.70833 0C9.97425 0 11 1.12842 11 2.52083C11 1.12842 12.0258 0 13.2917 0C14.5576 0 15.5833 1.12842 15.5833 2.52083C15.5833 5.16083 11 8.40308 11 8.40308ZM11.9323 14.1964C12.5061 14.718 12.8333 15.4568 12.8333 16.2323V22H3.817L0.95975 18.8723C0.342833 18.1968 0 17.3149 0 16.3992V5.04167C0 3.69783 1.15592 2.62442 2.52817 2.76192C3.72075 2.88108 4.58333 3.97375 4.58333 5.17275V8.79725C4.58333 8.79725 3.88667 9.36192 3.75192 9.51042C2.46858 10.9239 2.41817 13.0992 3.63733 14.5695L6.78792 17.7522L8.07492 16.4652L5.10217 13.4631C4.54942 12.7958 4.41283 11.8387 4.85283 11.0926C5.53025 9.94308 7.04367 9.757 7.97592 10.604L11.9332 14.1973L11.9323 14.1964ZM17.149 11.0926C16.4716 9.94308 14.9582 9.757 14.0259 10.604L12.364 12.1128L13.1652 12.8407C14.0067 13.6052 14.5081 14.6621 14.6199 15.785L16.8997 13.464C17.4524 12.7967 17.589 11.8397 17.149 11.0935V11.0926ZM19.7092 2.75C18.4433 2.75 17.4176 3.77575 17.4176 5.04167V8.79633C17.4176 8.79633 18.1143 9.361 18.249 9.5095C19.5323 10.923 19.5828 13.0983 18.3636 14.5686L14.6667 18.3159V22H18.183L21.0402 18.8723C21.6572 18.1968 22 17.3149 22 16.3992V5.04167C22 3.77575 20.9752 2.75 19.7092 2.75Z" fill="#00995D"/>
</svg>
